<svg width="188" height="188" viewBox="0 0 188 188" fill="none" xmlns="http://www.w3.org/2000/svg">
<g filter="url(#filter0_d_2423_117)">
<rect x="30" y="30" width="128" height="128" rx="16" fill="#102210" shape-rendering="crispEdges"/>
<rect x="31" y="31" width="126" height="126" rx="15" stroke="#0FB30F" stroke-opacity="0.3" stroke-width="2" shape-rendering="crispEdges"/>
<g filter="url(#filter1_d_2423_117)">
<path d="M61 112L79 88L92.5 106H115L100 86.05L92.5 95.95L88.75 91L100 76L127 112H61V112M100.075 106V106V106V106V106V106M73 106H85L79 97.975L73 106V106M73 106H79H85H73V106" fill="#0FB30F"/>
</g>
</g>
<defs>
<filter id="filter0_d_2423_117" x="0" y="0" width="188" height="188" filterUnits="userSpaceOnUse" color-interpolation-filters="sRGB">
<feFlood flood-opacity="0" result="BackgroundImageFix"/>
<feColorMatrix in="SourceAlpha" type="matrix" values="0 0 0 0 0 0 0 0 0 0 0 0 0 0 0 0 0 0 127 0" result="hardAlpha"/>
<feOffset/>
<feGaussianBlur stdDeviation="15"/>
<feComposite in2="hardAlpha" operator="out"/>
<feColorMatrix type="matrix" values="0 0 0 0 0.0588235 0 0 0 0 0.701961 0 0 0 0 0.0588235 0 0 0 0.15 0"/>
<feBlend mode="normal" in2="BackgroundImageFix" result="effect1_dropShadow_2423_117"/>
<feBlend mode="normal" in="SourceGraphic" in2="effect1_dropShadow_2423_117" result="shape"/>
</filter>
<filter id="filter1_d_2423_117" x="59" y="74" width="70" height="40" filterUnits="userSpaceOnUse" color-interpolation-filters="sRGB">
<feFlood flood-opacity="0" result="BackgroundImageFix"/>
<feColorMatrix in="SourceAlpha" type="matrix" values="0 0 0 0 0 0 0 0 0 0 0 0 0 0 0 0 0 0 127 0" result="hardAlpha"/>
<feOffset/>
<feGaussianBlur stdDeviation="1"/>
<feComposite in2="hardAlpha" operator="out"/>
<feColorMatrix type="matrix" values="0 0 0 0 0.0588235 0 0 0 0 0.701961 0 0 0 0 0.0588235 0 0 0 0.6 0"/>
<feBlend mode="normal" in2="BackgroundImageFix" result="effect1_dropShadow_2423_117"/>
<feBlend mode="normal" in="SourceGraphic" in2="effect1_dropShadow_2423_117" result="shape"/>
</filter>
</defs>
</svg>
