<svg width="20" height="20" viewBox="0 0 20 20" fill="none" xmlns="http://www.w3.org/2000/svg">
<path d="M9.98438 0C4.45312 0 0 4.45312 0 9.98438C0 15.5156 4.45312 19.9688 9.98438 19.9688C15.5156 19.9688 19.9688 15.5156 19.9688 9.98438C19.9688 4.45312 15.5156 0 9.98438 0ZM9.98438 18C5.57812 18 1.96875 14.3906 1.96875 9.98438C1.96875 5.57812 5.57812 1.96875 9.98438 1.96875C14.3906 1.96875 18 5.57812 18 9.98438C18 14.3906 14.3906 18 9.98438 18ZM10.5 4.96875H9V10.9688L14.25 14.1562L15 12.8906L10.5 10.2188V4.96875Z" fill="#94A3B8"/>
</svg>
