<svg width="18" height="18" viewBox="0 0 18 18" fill="none" xmlns="http://www.w3.org/2000/svg">
<path d="M3.5625 2.01562C3.60938 2.90625 3.75 3.75 3.98438 4.59375L2.8125 5.8125C2.39062 4.59375 2.10938 3.32812 2.01562 2.01562H3.5625ZM13.4062 14.0156C14.25 14.25 15.1406 14.3906 15.9844 14.4844V15.9375C14.6719 15.8906 13.4062 15.6094 12.1875 15.1875L13.4062 14.0156ZM4.5 0H0.984375C0.46875 0 0 0.46875 0 0.984375C0 10.4062 7.59375 18 17.0156 18C17.5312 18 18 17.5312 18 17.0156V13.5C18 12.9375 17.5312 12.5156 17.0156 12.5156C15.75 12.5156 14.5312 12.3281 13.4531 11.9531C13.3125 11.9062 13.2188 11.9062 13.125 11.9062C12.8438 11.9062 12.6094 12 12.4219 12.1875L10.2188 14.3906C7.35938 12.9375 5.0625 10.6406 3.60938 7.78125L5.8125 5.57812C6.09375 5.29688 6.1875 4.92188 6.04688 4.54688C5.71875 3.46875 5.48438 2.25 5.48438 0.984375C5.48438 0.46875 5.0625 0 4.5 0Z" fill="#94A3B8"/>
</svg>
