<svg width="48" height="48" viewBox="0 0 48 48" fill="none" xmlns="http://www.w3.org/2000/svg">
<rect width="48" height="48" rx="8" fill="#0FB30F"/>
<path d="M18.0586 37.4375L21.9023 18C22.0273 17.3958 22.3086 16.9427 22.7461 16.6406C23.1836 16.3385 23.6419 16.1875 24.1211 16.1875C24.6003 16.1875 25.043 16.2917 25.4492 16.5C25.8555 16.7083 26.1836 17.0208 26.4336 17.4375L27.6836 19.4375C28.0586 20.0417 28.543 20.5885 29.1367 21.0781C29.7305 21.5677 30.4128 21.9271 31.1836 22.1562V19.9375H33.0586V37.4375H31.1836V24.75C30.1836 24.5208 29.2565 24.1562 28.4023 23.6562C27.5482 23.1562 26.8086 22.5417 26.1836 21.8125L25.4336 25.5625L28.0586 28.0625V37.4375H25.5586V29.9375L22.9336 27.4375L20.6836 37.4375H18.0586V37.4375M18.5898 25.0938L15.9336 24.5938C15.6003 24.5312 15.3398 24.3594 15.1523 24.0781C14.9648 23.7969 14.9023 23.4792 14.9648 23.125L15.9023 18.2188C16.0273 17.5521 16.3815 17.026 16.9648 16.6406C17.5482 16.2552 18.1732 16.125 18.8398 16.25L20.2773 16.5312L18.5898 25.0938V25.0938M26.1836 15.5625C25.4961 15.5625 24.9076 15.3177 24.418 14.8281C23.9284 14.3385 23.6836 13.75 23.6836 13.0625C23.6836 12.375 23.9284 11.7865 24.418 11.2969C24.9076 10.8073 25.4961 10.5625 26.1836 10.5625C26.8711 10.5625 27.4596 10.8073 27.9492 11.2969C28.4388 11.7865 28.6836 12.375 28.6836 13.0625C28.6836 13.75 28.4388 14.3385 27.9492 14.8281C27.4596 15.3177 26.8711 15.5625 26.1836 15.5625V15.5625" fill="#102210"/>
</svg>
