<svg width="48" height="48" viewBox="0 0 48 48" fill="none" xmlns="http://www.w3.org/2000/svg">
<rect width="48" height="48" rx="8" fill="#0FB30F"/>
<path d="M14 36.5C13.3125 36.5 12.724 36.2552 12.2344 35.7656C11.7448 35.276 11.5 34.6875 11.5 34V20.25C11.5 19.5625 11.7448 18.974 12.2344 18.4844C12.724 17.9948 13.3125 17.75 14 17.75H20.25V14C20.25 13.3125 20.4948 12.724 20.9844 12.2344C21.474 11.7448 22.0625 11.5 22.75 11.5H25.25C25.9375 11.5 26.526 11.7448 27.0156 12.2344C27.5052 12.724 27.75 13.3125 27.75 14V17.75H34C34.6875 17.75 35.276 17.9948 35.7656 18.4844C36.2552 18.974 36.5 19.5625 36.5 20.25V34C36.5 34.6875 36.2552 35.276 35.7656 35.7656C35.276 36.2552 34.6875 36.5 34 36.5H14V36.5M14 34H34V34V34V20.25V20.25V20.25H27.75V20.25C27.75 20.9375 27.5052 21.526 27.0156 22.0156C26.526 22.5052 25.9375 22.75 25.25 22.75H22.75C22.0625 22.75 21.474 22.5052 20.9844 22.0156C20.4948 21.526 20.25 20.9375 20.25 20.25V20.25H14V20.25V20.25V34V34V34V34M16.5 31.5H24V30.9375C24 30.5833 23.901 30.2552 23.7031 29.9531C23.5052 29.651 23.2292 29.4167 22.875 29.25C22.4583 29.0625 22.0365 28.9219 21.6094 28.8281C21.1823 28.7344 20.7292 28.6875 20.25 28.6875C19.7708 28.6875 19.3177 28.7344 18.8906 28.8281C18.4635 28.9219 18.0417 29.0625 17.625 29.25C17.2708 29.4167 16.9948 29.651 16.7969 29.9531C16.599 30.2552 16.5 30.5833 16.5 30.9375V31.5V31.5M26.5 29.625H31.5V27.75H26.5V29.625V29.625M20.25 27.75C20.7708 27.75 21.2135 27.5677 21.5781 27.2031C21.9427 26.8385 22.125 26.3958 22.125 25.875C22.125 25.3542 21.9427 24.9115 21.5781 24.5469C21.2135 24.1823 20.7708 24 20.25 24C19.7292 24 19.2865 24.1823 18.9219 24.5469C18.5573 24.9115 18.375 25.3542 18.375 25.875C18.375 26.3958 18.5573 26.8385 18.9219 27.2031C19.2865 27.5677 19.7292 27.75 20.25 27.75V27.75M26.5 25.875H31.5V24H26.5V25.875V25.875M22.75 20.25H25.25V14H22.75V20.25V20.25M24 27.125V27.125V27.125V27.125V27.125V27.125V27.125V27.125V27.125V27.125V27.125V27.125V27.125V27.125V27.125V27.125V27.125V27.125V27.125V27.125V27.125V27.125" fill="#102210"/>
</svg>
