<svg width="48" height="48" viewBox="0 0 48 48" fill="none" xmlns="http://www.w3.org/2000/svg">
<rect width="48" height="48" rx="8" fill="#0FB30F"/>
<path d="M16.5 36.5C15.8125 36.5 15.224 36.2552 14.7344 35.7656C14.2448 35.276 14 34.6875 14 34V19C14 18.3125 14.2448 17.724 14.7344 17.2344C15.224 16.7448 15.8125 16.5 16.5 16.5H19V16.5C19 15.125 19.4896 13.9479 20.4688 12.9688C21.4479 11.9896 22.625 11.5 24 11.5C25.375 11.5 26.5521 11.9896 27.5312 12.9688C28.5104 13.9479 29 15.125 29 16.5V16.5H31.5C32.1875 16.5 32.776 16.7448 33.2656 17.2344C33.7552 17.724 34 18.3125 34 19V34C34 34.6875 33.7552 35.276 33.2656 35.7656C32.776 36.2552 32.1875 36.5 31.5 36.5H16.5V36.5M16.5 34H31.5V34V34V19V19V19H29V21.5C29 21.8542 28.8802 22.151 28.6406 22.3906C28.401 22.6302 28.1042 22.75 27.75 22.75C27.3958 22.75 27.099 22.6302 26.8594 22.3906C26.6198 22.151 26.5 21.8542 26.5 21.5V19H21.5V21.5C21.5 21.8542 21.3802 22.151 21.1406 22.3906C20.901 22.6302 20.6042 22.75 20.25 22.75C19.8958 22.75 19.599 22.6302 19.3594 22.3906C19.1198 22.151 19 21.8542 19 21.5V19H16.5V19V19V34V34V34V34M21.5 16.5H26.5V16.5C26.5 15.8125 26.2552 15.224 25.7656 14.7344C25.276 14.2448 24.6875 14 24 14C23.3125 14 22.724 14.2448 22.2344 14.7344C21.7448 15.224 21.5 15.8125 21.5 16.5V16.5V16.5M16.5 34V34V34V34V19V19V19V19V19V19V34V34V34V34" fill="#102210"/>
</svg>
